PathFileType	4	(X/Y/Z)	C:/Users/beibeiliu/ov580/test_trc\sequence.8_training_dense_right.trc
DataRate	CameraRate	NumFrames	NumMarkers	Units	OrigDataRate	OrigDataStartFrame	OrigNumFrames
120	120	8	19	mm	120	47	375
Frame#	Time	ThumbCMC			ThumbMCP			ThumbIP			ThumbTip			IndexMCP			IndexPIP			IndexTip			MiddleMCP			MiddlePIP			MiddleTip			RingMCP			RingPIP			RingTip			PinkyMCP			PinkyPIP			PinkyTip			BackHand1			BackHand2			BackHand3	
		X0	Y0	Z0	X1	Y1	Z1	X2	Y2	Z2	X3	Y3	Z3	X4	Y4	Z4	X5	Y5	Z5	X6	Y6	Z6	X7	Y7	Z7	X8	Y8	Z8	X9	Y9	Z9	X10	Y10	Z10	X11	Y11	Z11	X12	Y12	Z12	X13	Y13	Z13	X14	Y14	Z14	X15	Y15	Z15	X16	Y16	Z16	X17	Y17	Z17	X18	Y18	Z18	
46	0.383333	201.398	-1.60293	8.99797	196.239	2.08464	-12.6974	194.593	11.1788	-37.1908	191.446	15.9104	-48.2054	207.572	-28.6806	-50.2111	185.504	-45.7434	-46.0376	186.893	-34.9703	-15.6149	212.235	-48.4093	-44.2185	185.283	-57.4715	-34.5803	191.582	-42.4514	-7.08652	216.095	-60.0874	-33.3537	190.853	-60.996	-19.4917	200.707	-44.8167	0.640367	219.35	-75.8895	-21.0392	198.411	-68.755	-7.02441	205.719	-49.4178	3.90908	243.875	-40.7731	-1.44278	242.773	-31.4014	25.0982	231.062	-12.5236	5.34401	
47	0.391667	202.152	-3.97685	12.1699	193.465	4.45161	-13.597	191.593	11.4645	-34.2349	191.459	15.3083	-51.1303	209.677	-26.3254	-50.2429	188.433	-47.4215	-45.4811	184.113	-33.8219	-19.2017	215.057	-50.1383	-44.6033	188.116	-57.8864	-32.3965	193.238	-38.2621	-7.34451	220.063	-59.8895	-32.8819	194.571	-62.8611	-17.1236	201.994	-44.8546	-0.0533932	223.794	-71.551	-20.7257	202.431	-65.7633	-12.3804	206.637	-47.0531	3.25684	246.931	-35.6475	1.71197	241.408	-25.2595	28.2674	229.872	-8.46492	8.40502	
48	0.4	199.806	-0.574751	9.49913	190.997	4.48396	-13.2972	190.674	10.7973	-37.2379	186.384	15.4349	-48.7264	210.956	-29.946	-53.3948	189.713	-42.9326	-50.1861	187.876	-36.9037	-20.239	218.552	-47.6729	-45.441	192.838	-56.7722	-36.4336	195.058	-38.5846	-8.97522	222.065	-56.2499	-35.2893	199.559	-62.0811	-22.6043	207.921	-42.0539	1.58391	230.21	-67.7673	-20.1413	206.921	-68.4663	-9.53958	209.511	-45.8192	2.38056	247.139	-30.9798	2.99104	244.21	-22.7926	26.0137	230.041	-4.70361	6.52343	
49	0.408333	201.763	-0.829788	7.02657	193.706	4.57291	-19.26	188.347	10.259	-36.1939	185.648	16.4165	-52.6383	216.005	-25.6896	-51.173	194.12	-44.4253	-45.9952	192.801	-33.0129	-18.9938	223.214	-39.2408	-45.9465	198.833	-58.4	-34.2257	198.068	-40.1516	-10.7449	227.556	-57.1106	-34.0054	203.3	-58.9506	-24.5619	208.551	-39.9592	0.0306184	235.081	-61.5064	-21.3189	212.353	-65.6397	-10.372	211.314	-44.3842	2.15992	249.56	-26.0695	0.619246	241.569	-17.6215	24.8382	231.169	-0.886607	6.42029	
50	0.416667	198.922	2.62113	3.33437	189.499	5.18174	-18.6182	187.751	9.62342	-37.206	183.48	17.8759	-54.373	217.312	-22.8183	-55.0295	197.547	-43.1036	-50.1433	193.185	-34.3088	-22.2258	224.723	-40.2772	-48.8549	203.373	-54.6299	-40.2751	203.563	-41.0979	-9.65113	233.499	-53.7853	-34.186	209.643	-59.3671	-24.3977	211.876	-40.0615	0.0944777	238.704	-58.9286	-21.2678	215.468	-59.9994	-14.7761	217.164	-43.7707	4.76299	249.669	-19.138	-2.63974	243.368	-11.7249	23.9472	230.056	0.83433	6.90563	
51	0.425	195.139	3.41939	4.92592	192.252	4.57961	-21.5871	188.921	7.64956	-39.5616	183.47	16.1766	-56.3448	221.667	-19.6349	-53.3453	205.304	-42.3903	-51.8244	194.454	-32.487	-23.6554	231.077	-34.1344	-46.7897	209.033	-54.1135	-41.5573	202.217	-36.0454	-12.3941	239.369	-49.1924	-33.5966	211.465	-54.8454	-23.7767	214.076	-37.7399	-0.826936	242.716	-54.8533	-22.6239	223.589	-61.087	-13.0995	219.936	-36.9381	3.76178	250.925	-13.662	-2.67232	244.701	-9.18462	26.0031	228.044	7.09503	4.418	
52	0.433333	195.887	4.62989	2.41063	188.612	4.30476	-22.2197	189.049	7.18055	-42.9236	179.883	14.276	-55.8499	221.234	-21.5999	-55.6319	203.693	-41.9781	-50.7924	201.534	-31.5883	-20.8059	233.169	-34.6763	-49.1267	211.672	-51.8341	-41.9861	207.923	-37.2968	-11.7947	238.921	-44.8221	-36.8642	217.837	-54.0024	-24.6132	216.574	-34.9409	-1.98475	247.871	-48.6481	-23.385	225.935	-55.7563	-15.2447	221.481	-35.6902	0.911235	252.949	-9.00597	-1.90099	239.884	-2.16161	25.4748	227.817	7.72861	2.92451	
53	0.441667	196.411	5.44695	2.13991	187.413	5.95194	-22.063	185.889	8.04555	-41.3351	178.986	16.193	-59.8771	223.118	-15.8154	-55.1071	211.748	-40.4997	-52.4866	204.363	-33.445	-24.2648	233.861	-28.0614	-50.0278	215.271	-52.0917	-38.5703	210.693	-36.9575	-11.9631	243.45	-43.121	-36.9797	223.002	-53.2075	-24.8968	217.221	-30.1029	-5.46439	253.324	-45.3959	-22.6082	232.73	-55.434	-13.823	222.609	-34.0435	-1.23415	252.98	-3.28041	-0.78216	241.979	2.49803	23.2899	226.158	14.2446	0.470933	
